<?xml version="1.0" encoding="utf-8"?>
<!-- Generator: Adobe Illustrator 21.0.0, SVG Export Plug-In . SVG Version: 6.00 Build 0)  -->
<svg version="1.1" id="圖層_1" xmlns="http://www.w3.org/2000/svg" xmlns:xlink="http://www.w3.org/1999/xlink" x="0px" y="0px"
	 viewBox="0 0 150 150" style="enable-background:new 0 0 150 150;" xml:space="preserve">
<style type="text/css">
	.st0{fill:#9163A7;}
	.st1{opacity:0.57;}
	.st2{fill:none;stroke:#9163A7;stroke-width:5;stroke-miterlimit:10;}
</style>
<g>
	<g>
		<path class="st0" d="M75,2c40.3,0,73,32.7,73,73s-32.7,73-73,73S2,115.3,2,75S34.7,2,75,2 M75,0C33.6,0,0,33.6,0,75s33.6,75,75,75
			s75-33.6,75-75S116.4,0,75,0L75,0z"/>
	</g>
	<g>
		<g class="st1">
			<circle class="st0" cx="74.8" cy="59.3" r="11.8"/>
			<path class="st0" d="M71.8,67.2c0,0-12.9,20.3-9,43.4h27.6c0,0,2.7-26.8-11.3-43.4H71.8z"/>
		</g>
		<circle class="st2" cx="75.4" cy="74" r="39.7"/>
		<line class="st2" x1="47.4" y1="102.2" x2="102" y2="47.5"/>
	</g>
</g>
</svg>
