<?xml version="1.0" encoding="utf-8"?>
<!-- Generator: Adobe Illustrator 21.0.0, SVG Export Plug-In . SVG Version: 6.00 Build 0)  -->
<svg version="1.1" id="圖層_1" xmlns="http://www.w3.org/2000/svg" xmlns:xlink="http://www.w3.org/1999/xlink" x="0px" y="0px"
	 viewBox="0 0 150 150" style="enable-background:new 0 0 150 150;" xml:space="preserve">
<style type="text/css">
	.st0{fill:#9163A7;}
</style>
<g>
	<g>
		<path class="st0" d="M75,2c40.3,0,73,32.7,73,73s-32.7,73-73,73S2,115.3,2,75S34.7,2,75,2 M75,0C33.6,0,0,33.6,0,75s33.6,75,75,75
			s75-33.6,75-75S116.4,0,75,0L75,0z"/>
	</g>
	<path class="st0" d="M98.4,28.3l-18,0.2c0,0-16.4,1.5-16.7,21c-0.2,11.4-0.1,13.3-0.1,13.3l-14.7,0.1v17h14.7V123h17.1l0.2-43.5
		l14.5,0.2l2.2-17.2l-16.6,0.1l-0.1-13.3c0,0,0-5.4,7.6-5.5l10.1,0.1V28.3z"/>
</g>
</svg>
