<?xml version="1.0" encoding="utf-8"?>
<!-- Generator: Adobe Illustrator 21.0.0, SVG Export Plug-In . SVG Version: 6.00 Build 0)  -->
<svg version="1.1" id="圖層_1" xmlns="http://www.w3.org/2000/svg" xmlns:xlink="http://www.w3.org/1999/xlink" x="0px" y="0px"
	 viewBox="0 0 150 150" style="enable-background:new 0 0 150 150;" xml:space="preserve">
<style type="text/css">
	.st0{fill:none;stroke:#9163A7;stroke-width:0.25;stroke-miterlimit:10;}
	.st1{fill:#9163A7;}
</style>
<path class="st0" d="M108.9,58.4c0,0,1.4,0,1.8,0.3c0,0,0.1,0.3-0.8,0.5C109.9,59.3,108.9,58.9,108.9,58.4z"/>
<g>
	<g>
		<path class="st1" d="M75,2c40.3,0,73,32.7,73,73s-32.7,73-73,73S2,115.3,2,75S34.7,2,75,2 M75,0C33.6,0,0,33.6,0,75s33.6,75,75,75
			s75-33.6,75-75S116.4,0,75,0L75,0z"/>
	</g>
	<path class="st1" d="M116.7,58.2c0,0-1.1,0.2-2.1-0.4c-1.1-0.6-1.9-0.9-1.9-0.9l-5.1-0.1c0,0-2.8,0.3-3.1,0.6c0,0,4.8,0.4,5.3,0.8
		c0,0-5,1.3-6.3,1.2c0,0,2.5,0.5,5.3,0.5l-1.4,1.4l-2.9,1.4c0,0,0.9,0.6-0.8,0.8c0,0,1.8,0.9-1.5,1.2l0.6,0.5l-1.5,0.4
		c0,0-1.3-1.8-1.3-2.2c-0.1-0.4,0.1-1.3,0.7-2.3c0.6-1,3.2-7.4,3.2-7.4l1.3,1.6c0,0-0.7-2.2-0.7-2.8c0-0.6,1.2-2.8,1.2-2.8
		s0.4-0.5,0.8,0c0.4,0.5,1.5,2.2,1.9,3.1c0,0.1-0.2-2-0.1-2.9c0,0-1.5-1.4-1.9-2.6c0,0-0.6,0.5-1.7,0.3s-8.7-4.7-18.1-6.7
		c-9.4-2.1-41-4.8-60.6-1.5c0,0,21.7,3.5,27.1,6.2l-25,2.4l-6.5,1.6c0,0,20.8-1.9,36,5.5c0,0,11.9,4.8-2.4,15.5
		c0,0,16.4-9.4,21.1-5.1c1.8,1.7,2,5.2-0.4,10.2c0,0,10.4-9.7,19.3-6.3l-1.6,1.7L88,72.5l3.3,0.2c0,0,0.4,0.8-2.4,1.1l-3.4,0.6
		l2.6,0.6c0,0-0.1,0.5-3.8,0.7c-3.6,0.2-3.9,0.2-3.9,0.2L83,77c0,0-3.9,1-5.1,1.5c-1.2,0.5-5.4,0.2-8.2-0.9
		c-2.8-1.5-3.9-2.8-3.9-2.8s-0.6,0.3,1,2.5c0,0-4.5-1.7-5.6-2.2l1.5,1.4c0,0,0.6,0.9-6.6-1.9l2.2,1.8c0,0-3.1-0.2-3.6-0.4
		s-4.3-0.9-4.6-0.9l2.1,1.3c0,0-4.7,0.6-6.1,1.7c0,0,7.1-0.8,9-0.6c2,0.2,5.3,0.3,9.9,2c4.6,1.7,7.2,2.5,11.2,2.4
		c4-0.1,10.2-0.7,17-4.7c0,0,0.4,0-0.4,1.2c0,0-0.3,0.7-0.2,1.1c0.1,0.5-1.2,2.1-1.4,2.1c-0.1,0.1-1.2,0.4-1.8-0.4
		c0,0-1,0.4-1.2,0.8c-0.2,0.4-0.8,3.4-0.8,3.8c-6.6,2.7-11.3,9.2-11.3,16.8c0,10,8.2,17.5,18.3,18.2c5.4,0.4,8.8-2.3,11.7-4.3
		c-2.4,1-5.7,2.3-9.3,1.8c-9-1.3-15.8-8.4-15.1-16.9c0.8-8.5,8.4-14.8,17-14c5.6,0.5,10.2,3.8,12.6,8.4c-2.7-6.7-9.3-11.4-16.9-11.4
		c-0.9,0-1.9,0.1-2.8,0.2c0-0.3,0-1.3,1.5-2.3l2.8-0.1c0,0,4.2-2.2,4.9-4.9c0,0,0.4-1,0.2-3.4l3.7-2.6l3.2,0l4.9-1.7
		c0,0,0.1,1.1,0,1.5c-0.1,0.4,1.2-0.9,1.2-0.9s0.4,0.6,0.3,1.3c-0.2,0.7,1-1,1-1l0.6,0l0.7-1.7l-2.3-1.9l-4.6,0.6l0.6-1.4
		c0,0,0.1-2.5,0.2-2.8c0.1-0.3,1.5-1.9,1.5-1.9s1.4-0.5,2.8,0.6l1.1-0.7l-1.1-0.1c0,0-1.1-0.7-1.3-1.2l0.8-0.8l1.7,0l0.4,0.5
		c0,0,0.2-0.7,0.7,0C117.2,60,117.6,59.5,116.7,58.2z"/>
</g>
<path class="st0" d="M110.5,101.5"/>
</svg>
