<?xml version="1.0" encoding="utf-8"?>
<!-- Generator: Adobe Illustrator 21.0.0, SVG Export Plug-In . SVG Version: 6.00 Build 0)  -->
<svg version="1.1" id="圖層_1" xmlns="http://www.w3.org/2000/svg" xmlns:xlink="http://www.w3.org/1999/xlink" x="0px" y="0px"
	 viewBox="0 0 150 150" style="enable-background:new 0 0 150 150;" xml:space="preserve">
<style type="text/css">
	.st0{fill:#9163A7;}
	.st1{fill:#9163A7;stroke:#9163A7;stroke-miterlimit:10;}
	.st2{fill:#EFEFEF;stroke:#9163A7;stroke-miterlimit:10;}
	.st3{fill:#FFFFFF;stroke:#9163A7;stroke-miterlimit:10;}
	.st4{fill:none;stroke:#9163A7;stroke-width:2;stroke-miterlimit:10;}
</style>
<g>
	<g>
		<path class="st0" d="M75,2c40.3,0,73,32.7,73,73s-32.7,73-73,73S2,115.3,2,75S34.7,2,75,2 M75,0C33.6,0,0,33.6,0,75s33.6,75,75,75
			s75-33.6,75-75S116.4,0,75,0L75,0z"/>
	</g>
	<g>
		<g>
			<path class="st1" d="M96.4,119.4H60.1c-2.8,0-5-2.2-5-5V39.1c0-2.8,2.2-5,5-5h36.3c2.8,0,5,2.2,5,5v75.3
				C101.4,117.1,99.1,119.4,96.4,119.4z"/>
			<rect x="57.6" y="43.9" class="st2" width="41.4" height="64.8"/>
			<circle class="st2" cx="79.2" cy="114.4" r="3.4"/>
			<path class="st3" d="M82.5,40h-8c-0.4,0-0.8-0.4-0.8-0.8v-0.5c0-0.4,0.4-0.8,0.8-0.8h8c0.4,0,0.8,0.4,0.8,0.8v0.5
				C83.3,39.6,83,40,82.5,40z"/>
		</g>
		<g>
			<path class="st0" d="M110.2,95.1H87.7c-1.1,0-2-0.9-2-2V75.7c0-1.1,0.9-2,2-2h22.5c1.1,0,2,0.9,2,2v17.4
				C112.2,94.2,111.3,95.1,110.2,95.1z"/>
			<path class="st4" d="M73.7,68.5c0,0-0.6-10.1,10.7-10.1c12.7,0,9.2,16.7,9.2,16.7"/>
		</g>
		<path class="st2" d="M71.7,80.2l-4.6-4.9v-20c0-1.1-0.9-2-2-2H30.5c-1.1,0-2,0.9-2,2v20.8c0,1.1,0.9,2,2,2h31.2L71.7,80.2z"/>
		<g>
			<path class="st0" d="M40.6,69.1c0,0.3-0.1,0.4-0.4,0.4c-0.1,0-0.2-0.1-0.4-0.4l-2.1-2.8l-2.1,2.8c-0.2,0.3-0.3,0.4-0.4,0.4
				c-0.3,0-0.4-0.1-0.4-0.4c0-0.1,0.1-0.2,0.2-0.4l2.2-3l-1.8-2.4c-0.1-0.2-0.2-0.4-0.2-0.4c0-0.3,0.1-0.4,0.4-0.4
				c0.1,0,0.3,0.1,0.5,0.4l1.6,2.2l1.6-2.2c0.2-0.3,0.3-0.4,0.5-0.4c0.2,0,0.4,0.1,0.4,0.4c0,0.1-0.1,0.2-0.2,0.4l-1.8,2.4l2.2,3
				C40.5,68.9,40.6,69,40.6,69.1z"/>
			<path class="st0" d="M47.4,69.1c0,0.3-0.1,0.4-0.4,0.4c-0.1,0-0.2-0.1-0.4-0.4l-2.1-2.8l-2.1,2.8c-0.2,0.3-0.3,0.4-0.4,0.4
				c-0.3,0-0.4-0.1-0.4-0.4c0-0.1,0.1-0.2,0.2-0.4l2.2-3l-1.8-2.4c-0.1-0.2-0.2-0.4-0.2-0.4c0-0.3,0.1-0.4,0.4-0.4
				c0.1,0,0.3,0.1,0.5,0.4l1.6,2.2l1.6-2.2c0.2-0.3,0.3-0.4,0.5-0.4c0.2,0,0.4,0.1,0.4,0.4c0,0.1-0.1,0.2-0.2,0.4L45,65.7l2.2,3
				C47.4,68.9,47.4,69,47.4,69.1z"/>
			<path class="st0" d="M54.3,69.1c0,0.3-0.1,0.4-0.4,0.4c-0.1,0-0.2-0.1-0.4-0.4l-2.1-2.8l-2.1,2.8c-0.2,0.3-0.3,0.4-0.4,0.4
				c-0.3,0-0.4-0.1-0.4-0.4c0-0.1,0.1-0.2,0.2-0.4l2.2-3l-1.8-2.4C49,63,49,62.9,49,62.8c0-0.3,0.1-0.4,0.4-0.4
				c0.1,0,0.3,0.1,0.5,0.4l1.6,2.2l1.6-2.2c0.2-0.3,0.3-0.4,0.5-0.4c0.2,0,0.4,0.1,0.4,0.4c0,0.1-0.1,0.2-0.2,0.4l-1.8,2.4l2.2,3
				C54.2,68.9,54.3,69,54.3,69.1z"/>
			<path class="st0" d="M61.1,69.1c0,0.3-0.1,0.4-0.4,0.4c-0.1,0-0.2-0.1-0.4-0.4l-2.1-2.8l-2.1,2.8c-0.2,0.3-0.3,0.4-0.4,0.4
				c-0.3,0-0.4-0.1-0.4-0.4c0-0.1,0.1-0.2,0.2-0.4l2.2-3L56,63.2c-0.1-0.2-0.2-0.4-0.2-0.4c0-0.3,0.1-0.4,0.4-0.4
				c0.1,0,0.3,0.1,0.5,0.4l1.6,2.2l1.6-2.2c0.2-0.3,0.3-0.4,0.5-0.4c0.2,0,0.4,0.1,0.4,0.4c0,0.1-0.1,0.2-0.2,0.4l-1.8,2.4l2.2,3
				C61.1,68.9,61.1,69,61.1,69.1z"/>
		</g>
	</g>
</g>
</svg>
