<?xml version="1.0" encoding="utf-8"?>
<!-- Generator: Adobe Illustrator 21.0.0, SVG Export Plug-In . SVG Version: 6.00 Build 0)  -->
<svg version="1.1" id="圖層_1" xmlns="http://www.w3.org/2000/svg" xmlns:xlink="http://www.w3.org/1999/xlink" x="0px" y="0px"
	 viewBox="0 0 150 150" style="enable-background:new 0 0 150 150;" xml:space="preserve">
<style type="text/css">
	.st0{fill:#9163A7;}
	.st1{fill:#9163A7;stroke:#9163A7;stroke-width:2;stroke-miterlimit:10;}
	.st2{fill:#EFEFEF;stroke:#9163A7;stroke-width:2;stroke-miterlimit:10;}
	.st3{fill:none;stroke:#9163A7;stroke-width:2;stroke-miterlimit:10;}
</style>
<g>
	<g>
		<path class="st0" d="M75.5,2C116,2,149,35,149,75.5S116,149,75.5,149S2,116,2,75.5S35,2,75.5,2 M75.5,0C33.8,0,0,33.8,0,75.5
			S33.8,151,75.5,151S151,117.2,151,75.5S117.2,0,75.5,0L75.5,0z"/>
	</g>
	<g>
		<path class="st1" d="M120.4,52.3c3.6,0.5,7.4,1.4,11.3,2.7v42.3c0,0-29.1-8.3-47.3,6.9l-1.2,4.3h-5.4h1.4h-5.4l-1.2-4.3
			c-18.2-15.1-47.3-6.9-47.3-6.9V55c3.1-1,6.1-1.8,9-2.3"/>
		<path class="st2" d="M77.3,58.1c12.1-17.5,43-13,43-13v46.3c-18.7-5.4-43,8.5-43,8.5S53,86,34.3,91.4V45.1
			C34.3,45.1,65.3,40.6,77.3,58.1z"/>
		<path class="st3" d="M78.4,65.1"/>
		<line class="st3" x1="77.3" y1="58.1" x2="77.3" y2="99.9"/>
	</g>
</g>
</svg>
