<?xml version="1.0" encoding="utf-8"?>
<!-- Generator: Adobe Illustrator 21.0.0, SVG Export Plug-In . SVG Version: 6.00 Build 0)  -->
<svg version="1.1" id="圖層_1" xmlns="http://www.w3.org/2000/svg" xmlns:xlink="http://www.w3.org/1999/xlink" x="0px" y="0px"
	 viewBox="0 0 150 150" style="enable-background:new 0 0 150 150;" xml:space="preserve">
<style type="text/css">
	.st0{fill:#9163A7;}
</style>
<g>
	<g>
		<path class="st0" d="M75,2c40.3,0,73,32.7,73,73s-32.7,73-73,73S2,115.3,2,75S34.7,2,75,2 M75,0C33.6,0,0,33.6,0,75s33.6,75,75,75
			s75-33.6,75-75S116.4,0,75,0L75,0z"/>
	</g>
	<g>
		<path class="st0" d="M59.9,49c3.8-4,9-6.1,15.6-6.1c6.1,0,11,1.7,14.7,5.2c3.7,3.4,5.5,7.9,5.5,13.2c0,3.3-0.7,5.9-2,7.9
			c-1.3,2-4.1,5-8.2,8.9c-3,2.9-5,5.3-5.9,7.3c-0.9,2-1.4,4.9-1.4,8.8h-8.2c0-4.4,0.5-7.9,1.6-10.6c1-2.7,3.4-5.8,7-9.2l3.8-3.6
			c1.1-1,2-2.1,2.7-3.3c1.3-2,1.9-4.1,1.9-6.2c0-3-0.9-5.6-2.8-7.8c-1.8-2.2-4.9-3.3-9.1-3.3c-5.2,0-8.9,1.9-10.9,5.7
			c-1.1,2.1-1.8,5.2-1.9,9.2h-8.2C54.2,58.4,56.1,53,59.9,49z M69.9,101.9h9.2v9.6h-9.2V101.9z"/>
	</g>
</g>
</svg>
