<?xml version="1.0" encoding="utf-8"?>
<!-- Generator: Adobe Illustrator 21.0.0, SVG Export Plug-In . SVG Version: 6.00 Build 0)  -->
<svg version="1.1" id="圖層_1" xmlns="http://www.w3.org/2000/svg" xmlns:xlink="http://www.w3.org/1999/xlink" x="0px" y="0px"
	 viewBox="0 0 150 150" style="enable-background:new 0 0 150 150;" xml:space="preserve">
<style type="text/css">
	.st0{fill:#9163A7;}
	.st1{fill:none;stroke:#9163A7;stroke-width:2;stroke-miterlimit:10;}
	.st2{fill:#9163A7;stroke:#9163A7;stroke-miterlimit:10;}
</style>
<g>
	<g>
		<path class="st0" d="M74.8,2.1c40.2,0,73,32.7,73,73s-32.7,73-73,73s-73-32.7-73-73S34.5,2.1,74.8,2.1 M74.8,0.1
			c-41.4,0-75,33.6-75,75s33.6,75,75,75s75-33.6,75-75S116.2,0.1,74.8,0.1L74.8,0.1z"/>
	</g>
	<g>
		<path class="st1" d="M40.7,79c0,0-2.3-43.6,34.3-43.6S109,79,109,79s1.4,33.9-30.1,33.9"/>
		<path class="st2" d="M43.2,66.9v20.7c0,0-8.5-0.4-8.5-10.3S43.2,66.9,43.2,66.9z"/>
		<path class="st2" d="M106.7,66.9v20.7c0,0,8.5-0.4,8.5-10.3S106.7,66.9,106.7,66.9z"/>
		<ellipse transform="matrix(0.4002 -0.9164 0.9164 0.4002 -56.2316 139.9842)" class="st0" cx="78.8" cy="113" rx="4.6" ry="4.6"/>
		<path class="st0" d="M82.9,84H68.5c-5.1,0-9.3-4.2-9.3-9.3v-6.4c0-5.1,4.2-9.3,9.3-9.3h14.4c5.1,0,9.3,4.2,9.3,9.3v6.4
			C92.1,79.8,88,84,82.9,84z"/>
		<path class="st0" d="M59.4,70.8c0,0-2.9,21.2,15.1,28.4c0,0-5.3-5.1-4.2-23.2L59.4,70.8z"/>
	</g>
</g>
</svg>
