<?xml version="1.0" encoding="utf-8"?>
<!-- Generator: Adobe Illustrator 21.0.0, SVG Export Plug-In . SVG Version: 6.00 Build 0)  -->
<svg version="1.1" id="圖層_1" xmlns="http://www.w3.org/2000/svg" xmlns:xlink="http://www.w3.org/1999/xlink" x="0px" y="0px"
	 viewBox="0 0 150 150" style="enable-background:new 0 0 150 150;" xml:space="preserve">
<style type="text/css">
	.st0{fill:#9163A7;}
	.st1{fill:#EFEFEF;stroke:#9163A7;stroke-miterlimit:10;}
	.st2{fill:none;stroke:#9163A7;stroke-miterlimit:10;}
</style>
<g>
	<g>
		<path class="st0" d="M75,2c40.3,0,73,32.7,73,73s-32.7,73-73,73S2,115.3,2,75S34.7,2,75,2 M75,0C33.6,0,0,33.6,0,75s33.6,75,75,75
			s75-33.6,75-75S116.4,0,75,0L75,0z"/>
	</g>
	<g>
		<path class="st1" d="M114.5,66.1L78,29.5c-1.6-1.6-4.3-1.6-5.9,0c0,0-36.5,36.5-36.5,36.5v40.8c0,3,2.4,5.4,5.4,5.4h68.2
			c3,0,5.4-2.4,5.4-5.4C114.5,106.8,114.5,66.1,114.5,66.1z"/>
		<polyline class="st2" points="35.6,66.1 75.7,87.9 114.5,66.1 		"/>
		<polygon class="st0" points="41.5,69.3 41.5,65 107.9,65 107.9,69.8 75.7,87.9 		"/>
		<line class="st2" x1="64.4" y1="81.8" x2="37.3" y2="110.7"/>
		<line class="st2" x1="85.9" y1="81.8" x2="113" y2="110.7"/>
	</g>
</g>
</svg>
